<?xml version="1.0" encoding="UTF-8" standalone="no"?>
<!DOCTYPE svg PUBLIC "-//W3C//DTD SVG 1.1//EN" "http://www.w3.org/Graphics/SVG/1.1/DTD/svg11.dtd">
<svg width="100%" height="100%" viewBox="0 0 526 375" version="1.1" xmlns="http://www.w3.org/2000/svg" xmlns:xlink="http://www.w3.org/1999/xlink" xml:space="preserve" xmlns:serif="http://www.serif.com/" style="fill-rule:evenodd;clip-rule:evenodd;stroke-linejoin:round;stroke-miterlimit:2;">
    <g transform="matrix(5.555556,0,0,5.555556,136.016667,0)">
        <path d="M0,25.914L15.604,25.914C16.557,25.914 17.329,25.142 17.329,24.189L17.329,1.725C17.329,0.773 16.557,0 15.604,0L0,0C-0.953,0 -1.725,0.773 -1.725,1.725L-1.725,24.189C-1.725,25.142 -0.953,25.914 0,25.914" style="fill:white;fill-rule:nonzero;"/>
    </g>
    <g transform="matrix(5.555556,0,0,5.555556,303.050556,0)">
        <path d="M0,25.914L15.604,25.914C16.557,25.914 17.329,25.142 17.329,24.189L17.329,1.725C17.329,0.773 16.557,0 15.604,0L0,0C-0.953,0 -1.725,0.773 -1.725,1.725L-1.725,24.189C-1.725,25.142 -0.953,25.914 0,25.914" style="fill:white;fill-rule:nonzero;"/>
    </g>
    <g transform="matrix(5.555556,0,0,5.555556,516.172222,374.736111)">
        <path d="M0,-45.619L-15.604,-45.619C-16.557,-45.619 -17.329,-44.847 -17.329,-43.894L-17.329,-22.244C-17.329,-21.292 -18.101,-20.52 -19.053,-20.52L-19.309,-20.52C-20.261,-20.52 -21.033,-21.292 -21.033,-22.244L-21.033,-35.539C-21.033,-36.492 -21.805,-37.265 -22.759,-37.265L-68.427,-37.265C-69.38,-37.265 -70.153,-36.492 -70.153,-35.539L-70.153,-22.268L-70.155,-22.266L-70.155,-22.245C-70.155,-21.292 -70.927,-20.52 -71.879,-20.52L-72.134,-20.52C-73.086,-20.52 -73.858,-21.292 -73.858,-22.245L-73.858,-27.448C-73.858,-27.453 -73.857,-27.459 -73.857,-27.464L-73.857,-43.894C-73.857,-44.847 -74.629,-45.619 -75.582,-45.619L-91.186,-45.619C-92.138,-45.619 -92.911,-44.847 -92.911,-43.894L-92.911,-21.43C-92.911,-20.478 -92.138,-19.705 -91.186,-19.705L-76.661,-19.705C-75.709,-19.705 -74.936,-18.933 -74.936,-17.98L-74.936,-1.726C-74.936,-0.773 -74.164,0 -73.21,0L-17.975,0C-17.022,0 -16.249,-0.773 -16.249,-1.726L-16.249,-17.98C-16.249,-18.933 -15.477,-19.705 -14.524,-19.705L0,-19.705C0.953,-19.705 1.725,-20.478 1.725,-21.43L1.725,-43.894C1.725,-44.847 0.953,-45.619 0,-45.619" style="fill:white;fill-rule:nonzero;"/>
    </g>
</svg>
